<svg width="512" height="512" viewBox="0 0 512 512" fill="none" xmlns="http://www.w3.org/2000/svg">
<path d="M506.56 261.76C506.56 244.907 505.067 228.907 502.507 213.333H261.44V309.547H399.467C393.28 341.12 375.147 367.787 348.267 385.92V449.92H430.613C478.827 405.334 506.56 339.627 506.56 261.76Z" fill="#4285F4"/>
<path d="M261.44 512C330.56 512 388.373 488.96 430.613 449.92L348.267 385.92C325.227 401.28 296 410.667 261.44 410.667C194.667 410.667 138.133 365.654 117.867 304.854H32.9601V370.774C74.9868 454.4 161.387 512 261.44 512Z" fill="#34A853"/>
<path d="M117.867 304.853C112.533 289.493 109.76 273.067 109.76 256C109.76 238.933 112.747 222.507 117.867 207.147V141.227H32.96C15.4667 175.787 5.44006 214.613 5.44006 256C5.44006 297.387 15.4667 336.213 32.96 370.773L117.867 304.853Z" fill="#FBBC05"/>
<path d="M261.44 101.333C299.2 101.333 332.907 114.347 359.573 139.733L432.533 66.7734C388.373 25.3867 330.56 0 261.44 0C161.387 0 74.9868 57.6001 32.9601 141.227L117.867 207.147C138.133 146.347 194.667 101.333 261.44 101.333Z" fill="#EA4335"/>
</svg>
