<svg width="512" height="512" viewBox="0 0 512 512" fill="none" xmlns="http://www.w3.org/2000/svg">
<path d="M297.106 429.582L452.97 126.678C454.955 122.819 456 118.449 456 114.001C456 108.796 454.57 103.717 451.902 99.4445L441.651 83.0268C431.082 66.0999 413.746 56.0078 395.238 56.0078H116.235C97.3709 56.0078 79.7495 66.4893 69.2543 83.9527L59.9305 99.4667C57.368 103.731 56 108.746 56 113.878C56 118.406 57.0656 122.855 59.0906 126.782L215.276 429.627C223.69 445.941 239.291 456 256.18 456C273.085 456 288.698 445.922 297.106 429.582Z" stroke="white" stroke-width="13.3867"/>
<rect x="0.914333" y="0.244995" width="53.519" height="17.6155" transform="matrix(0.86603 -0.499993 0.500007 0.866021 120.416 252.069)" fill="white" stroke="white" stroke-width="1.33867"/>
<rect x="246.241" y="130.211" width="73.5414" height="17.6187" transform="rotate(-90 246.241 130.211)" fill="white" stroke="white" stroke-width="1.33867"/>
<rect x="-0.914333" y="0.244995" width="53.519" height="17.6155" transform="matrix(-0.86603 -0.499993 -0.500007 0.866021 388.076 251.154)" fill="white" stroke="white" stroke-width="1.33867"/>
<mask id="path-5-inside-1_853_222" fill="white">
<path fill-rule="evenodd" clip-rule="evenodd" d="M84.4373 120.457C84.4373 100.565 100.564 84.439 120.456 84.439C140.349 84.439 156.475 100.565 156.475 120.457C156.475 140.35 140.349 156.476 120.456 156.476C100.564 156.476 84.4373 140.35 84.4373 120.457ZM98.656 98.6377C101.27 96.0235 105.508 96.023 108.122 98.6366L119.989 110.501L131.832 98.6609C134.447 96.0473 138.685 96.0478 141.298 98.662C143.912 101.276 143.911 105.514 141.297 108.128L129.456 119.966L141.297 131.805C143.911 134.418 143.912 138.656 141.298 141.27C138.685 143.885 134.447 143.885 131.832 141.271L119.989 129.431L108.122 141.296C105.508 143.909 101.27 143.909 98.656 141.295C96.0424 138.68 96.0429 134.442 98.6571 131.829L110.522 119.966L98.657 108.103C96.0428 105.49 96.0423 101.252 98.656 98.6377Z"/>
</mask>
<path fill-rule="evenodd" clip-rule="evenodd" d="M84.4373 120.457C84.4373 100.565 100.564 84.439 120.456 84.439C140.349 84.439 156.475 100.565 156.475 120.457C156.475 140.35 140.349 156.476 120.456 156.476C100.564 156.476 84.4373 140.35 84.4373 120.457ZM98.656 98.6377C101.27 96.0235 105.508 96.023 108.122 98.6366L119.989 110.501L131.832 98.6609C134.447 96.0473 138.685 96.0478 141.298 98.662C143.912 101.276 143.911 105.514 141.297 108.128L129.456 119.966L141.297 131.805C143.911 134.418 143.912 138.656 141.298 141.27C138.685 143.885 134.447 143.885 131.832 141.271L119.989 129.431L108.122 141.296C105.508 143.909 101.27 143.909 98.656 141.295C96.0424 138.68 96.0429 134.442 98.6571 131.829L110.522 119.966L98.657 108.103C96.0428 105.49 96.0423 101.252 98.656 98.6377Z" fill="white"/>
<path d="M108.122 98.6366L107.175 99.5833L107.175 99.5833L108.122 98.6366ZM98.656 98.6377L97.7093 97.6912L97.7093 97.6912L98.656 98.6377ZM119.989 110.501L119.043 111.448L119.989 112.394L120.936 111.448L119.989 110.501ZM131.832 98.6609L130.886 97.7142L130.886 97.7142L131.832 98.6609ZM141.297 108.128L140.351 107.181L140.351 107.181L141.297 108.128ZM129.456 119.966L128.51 119.019L127.563 119.966L128.51 120.913L129.456 119.966ZM141.297 131.805L140.351 132.751L140.351 132.751L141.297 131.805ZM131.832 141.271L132.779 140.325L132.779 140.325L131.832 141.271ZM119.989 129.431L120.936 128.484L119.989 127.538L119.043 128.484L119.989 129.431ZM108.122 141.296L109.068 142.242L109.068 142.242L108.122 141.296ZM98.656 141.295L99.6027 140.348L99.6027 140.348L98.656 141.295ZM98.6571 131.829L99.6035 132.775L99.6035 132.775L98.6571 131.829ZM110.522 119.966L111.469 120.913L112.416 119.966L111.469 119.019L110.522 119.966ZM98.657 108.103L99.6035 107.157L99.6035 107.157L98.657 108.103ZM120.456 83.1003C99.8246 83.1003 83.0986 99.8255 83.0986 120.457H85.7759C85.7759 101.304 101.303 85.7776 120.456 85.7776V83.1003ZM157.814 120.457C157.814 99.8255 141.088 83.1003 120.456 83.1003V85.7776C139.609 85.7776 155.137 101.304 155.137 120.457H157.814ZM120.456 157.814C141.088 157.814 157.814 141.089 157.814 120.457H155.137C155.137 139.61 139.609 155.137 120.456 155.137V157.814ZM83.0986 120.457C83.0986 141.089 99.8246 157.814 120.456 157.814V155.137C101.303 155.137 85.7759 139.61 85.7759 120.457H83.0986ZM109.068 97.69C105.931 94.5536 100.846 94.5542 97.7093 97.6912L99.6026 99.5842C101.694 97.4928 105.084 97.4924 107.175 99.5833L109.068 97.69ZM120.936 109.555L109.068 97.69L107.175 99.5833L119.043 111.448L120.936 109.555ZM130.886 97.7142L119.043 109.555L120.936 111.448L132.779 99.6076L130.886 97.7142ZM142.245 97.7155C139.109 94.5785 134.023 94.5779 130.886 97.7142L132.779 99.6076C134.87 97.5167 138.261 97.5171 140.352 99.6084L142.245 97.7155ZM142.244 109.074C145.381 105.938 145.381 100.853 142.245 97.7155L140.352 99.6084C142.442 101.7 142.442 105.09 140.351 107.181L142.244 109.074ZM130.403 120.913L142.244 109.074L140.351 107.181L128.51 119.019L130.403 120.913ZM142.244 130.858L130.403 119.019L128.51 120.913L140.351 132.751L142.244 130.858ZM142.245 142.217C145.381 139.08 145.381 133.994 142.244 130.858L140.351 132.751C142.442 134.842 142.442 138.233 140.351 140.324L142.245 142.217ZM130.886 142.218C134.023 145.354 139.109 145.354 142.245 142.217L140.351 140.324C138.261 142.415 134.87 142.416 132.779 140.325L130.886 142.218ZM119.043 130.378L130.886 142.218L132.779 140.325L120.936 128.484L119.043 130.378ZM109.068 142.242L120.936 130.378L119.043 128.484L107.175 140.349L109.068 142.242ZM97.7093 142.241C100.846 145.378 105.931 145.379 109.068 142.242L107.175 140.349C105.084 142.44 101.694 142.439 99.6027 140.348L97.7093 142.241ZM97.7106 130.882C94.5735 134.018 94.573 139.104 97.7093 142.241L99.6027 140.348C97.5118 138.257 97.5122 134.866 99.6035 132.775L97.7106 130.882ZM109.576 119.019L97.7106 130.882L99.6035 132.775L111.469 120.913L109.576 119.019ZM97.7106 109.05L109.576 120.913L111.469 119.019L99.6035 107.157L97.7106 109.05ZM97.7093 97.6912C94.5729 100.828 94.5735 105.914 97.7106 109.05L99.6035 107.157C97.5121 105.066 97.5118 101.676 99.6026 99.5842L97.7093 97.6912Z" fill="white" mask="url(#path-5-inside-1_853_222)"/>
<mask id="path-7-inside-2_853_222" fill="white">
<path fill-rule="evenodd" clip-rule="evenodd" d="M391.539 84.439C371.647 84.439 355.521 100.565 355.521 120.457C355.521 140.35 371.647 156.476 391.539 156.476C411.432 156.476 427.558 140.35 427.558 120.457C427.558 100.565 411.432 84.439 391.539 84.439ZM415.712 113.064C418.44 110.57 418.63 106.337 416.136 103.608C413.642 100.88 409.409 100.69 406.68 103.184L383.879 124.026L376.767 118.338C373.88 116.029 369.668 116.497 367.359 119.384C365.05 122.271 365.518 126.483 368.405 128.792L379.988 138.056L384.459 141.632L388.685 137.769L415.712 113.064Z"/>
</mask>
<path fill-rule="evenodd" clip-rule="evenodd" d="M391.539 84.439C371.647 84.439 355.521 100.565 355.521 120.457C355.521 140.35 371.647 156.476 391.539 156.476C411.432 156.476 427.558 140.35 427.558 120.457C427.558 100.565 411.432 84.439 391.539 84.439ZM415.712 113.064C418.44 110.57 418.63 106.337 416.136 103.608C413.642 100.88 409.409 100.69 406.68 103.184L383.879 124.026L376.767 118.338C373.88 116.029 369.668 116.497 367.359 119.384C365.05 122.271 365.518 126.483 368.405 128.792L379.988 138.056L384.459 141.632L388.685 137.769L415.712 113.064Z" fill="white"/>
<path d="M416.136 103.608L417.124 102.705L417.124 102.705L416.136 103.608ZM415.712 113.064L416.615 114.052L416.615 114.052L415.712 113.064ZM406.68 103.184L405.777 102.196L405.777 102.196L406.68 103.184ZM383.879 124.026L383.043 125.071L383.937 125.787L384.782 125.014L383.879 124.026ZM376.767 118.338L375.93 119.383L375.93 119.383L376.767 118.338ZM367.359 119.384L368.404 120.22L368.404 120.22L367.359 119.384ZM368.405 128.792L369.241 127.746L369.241 127.746L368.405 128.792ZM379.988 138.056L379.152 139.101L379.152 139.101L379.988 138.056ZM384.459 141.632L383.623 142.677L384.517 143.393L385.362 142.62L384.459 141.632ZM388.685 137.769L387.782 136.781L387.782 136.781L388.685 137.769ZM356.859 120.457C356.859 101.304 372.386 85.7776 391.539 85.7776V83.1003C370.908 83.1003 354.182 99.8255 354.182 120.457H356.859ZM391.539 155.137C372.386 155.137 356.859 139.61 356.859 120.457H354.182C354.182 141.089 370.908 157.814 391.539 157.814V155.137ZM426.22 120.457C426.22 139.61 410.693 155.137 391.539 155.137V157.814C412.171 157.814 428.897 141.089 428.897 120.457H426.22ZM391.539 85.7776C410.693 85.7776 426.22 101.304 426.22 120.457H428.897C428.897 99.8255 412.171 83.1003 391.539 83.1003V85.7776ZM415.148 104.511C417.144 106.694 416.991 110.081 414.809 112.076L416.615 114.052C419.889 111.06 420.117 105.979 417.124 102.705L415.148 104.511ZM407.583 104.172C409.766 102.176 413.153 102.329 415.148 104.511L417.124 102.705C414.132 99.4308 409.051 99.2027 405.777 102.196L407.583 104.172ZM384.782 125.014L407.583 104.172L405.777 102.196L382.976 123.038L384.782 125.014ZM375.93 119.383L383.043 125.071L384.715 122.981L377.603 117.292L375.93 119.383ZM368.404 120.22C370.251 117.911 373.621 117.536 375.93 119.383L377.603 117.292C374.139 114.521 369.084 115.084 366.313 118.548L368.404 120.22ZM369.241 127.746C366.932 125.899 366.557 122.529 368.404 120.22L366.313 118.548C363.543 122.012 364.105 127.066 367.569 129.837L369.241 127.746ZM380.824 137.011L369.241 127.746L367.569 129.837L379.152 139.101L380.824 137.011ZM385.295 140.587L380.824 137.011L379.152 139.101L383.623 142.677L385.295 140.587ZM387.782 136.781L383.556 140.644L385.362 142.62L389.588 138.757L387.782 136.781ZM414.809 112.076L387.782 136.781L389.588 138.757L416.615 114.052L414.809 112.076Z" fill="white" mask="url(#path-7-inside-2_853_222)"/>
<mask id="path-9-inside-3_853_222" fill="white">
<path fill-rule="evenodd" clip-rule="evenodd" d="M255.999 355.525C236.107 355.525 219.98 371.651 219.98 391.543C219.98 411.436 236.107 427.561 255.999 427.561C275.892 427.561 292.018 411.436 292.018 391.543C292.018 371.651 275.892 355.525 255.999 355.525ZM251.028 413.591C251.339 413.275 251.761 413.098 252.201 413.098H258.836C259.276 413.098 259.698 413.275 260.009 413.591C260.32 413.907 260.495 414.336 260.495 414.782C260.495 415.229 260.32 415.658 260.009 415.974C259.698 416.29 259.276 416.467 258.836 416.467H252.201C251.761 416.467 251.339 416.29 251.028 415.974C250.717 415.658 250.542 415.229 250.542 414.782C250.542 414.336 250.717 413.907 251.028 413.591ZM250.542 408.044H260.495C260.935 408.044 261.357 408.221 261.668 408.537C261.979 408.853 262.154 409.281 262.154 409.728C262.154 410.175 261.979 410.604 261.668 410.92C261.357 411.235 260.935 411.413 260.495 411.413H250.542C250.102 411.413 249.681 411.235 249.369 410.92C249.058 410.604 248.884 410.175 248.884 409.728C248.884 409.281 249.058 408.853 249.369 408.537C249.681 408.221 250.102 408.044 250.542 408.044ZM255.519 365.926C259.984 365.926 264.16 367.671 267.277 370.842C268.818 372.408 270.038 374.269 270.867 376.316C271.696 378.364 272.117 380.559 272.106 382.773C272.106 387.786 270.352 392.144 267.032 395.363L266.523 395.854L266.521 395.856C264.677 397.629 262.154 400.055 262.154 402.147V404.674C262.154 405.121 261.979 405.549 261.668 405.865C261.357 406.181 260.935 406.359 260.495 406.359H258.007C257.787 406.359 257.576 406.27 257.42 406.112C257.265 405.954 257.177 405.74 257.177 405.516V393.175C257.177 393.004 257.228 392.838 257.323 392.698C257.418 392.557 257.553 392.449 257.709 392.388C258.667 391.992 259.577 391.486 260.421 390.88C260.751 390.611 260.966 390.223 261.023 389.798C261.081 389.372 260.976 388.94 260.73 388.59C260.484 388.24 260.116 387.999 259.701 387.916C259.286 387.833 258.855 387.914 258.497 388.143C257.728 388.692 256.251 389.512 255.519 389.512C254.787 389.512 253.309 388.695 252.542 388.143C252.366 388 252.163 387.896 251.946 387.835C251.729 387.775 251.502 387.76 251.279 387.792C251.056 387.824 250.842 387.901 250.649 388.02C250.457 388.138 250.29 388.295 250.159 388.481C250.028 388.667 249.936 388.878 249.888 389.102C249.84 389.325 249.837 389.556 249.88 389.78C249.923 390.005 250.01 390.218 250.137 390.407C250.263 390.596 250.426 390.757 250.616 390.88C251.46 391.488 252.37 391.995 253.328 392.391C253.485 392.453 253.619 392.56 253.714 392.701C253.809 392.841 253.86 393.008 253.86 393.178V405.516C253.86 405.74 253.773 405.954 253.617 406.112C253.461 406.27 253.25 406.359 253.031 406.359H250.542C250.102 406.359 249.681 406.181 249.369 405.865C249.058 405.549 248.884 405.121 248.884 404.674V402.147C248.884 400.003 246.33 397.574 244.463 395.801L244.011 395.37C240.784 392.273 238.931 387.682 238.931 382.773C238.926 380.559 239.351 378.366 240.183 376.319C241.015 374.273 242.237 372.414 243.778 370.848C245.319 369.283 247.15 368.042 249.165 367.197C251.18 366.352 253.339 365.92 255.519 365.926Z"/>
</mask>
<path fill-rule="evenodd" clip-rule="evenodd" d="M255.999 355.525C236.107 355.525 219.98 371.651 219.98 391.543C219.98 411.436 236.107 427.561 255.999 427.561C275.892 427.561 292.018 411.436 292.018 391.543C292.018 371.651 275.892 355.525 255.999 355.525ZM251.028 413.591C251.339 413.275 251.761 413.098 252.201 413.098H258.836C259.276 413.098 259.698 413.275 260.009 413.591C260.32 413.907 260.495 414.336 260.495 414.782C260.495 415.229 260.32 415.658 260.009 415.974C259.698 416.29 259.276 416.467 258.836 416.467H252.201C251.761 416.467 251.339 416.29 251.028 415.974C250.717 415.658 250.542 415.229 250.542 414.782C250.542 414.336 250.717 413.907 251.028 413.591ZM250.542 408.044H260.495C260.935 408.044 261.357 408.221 261.668 408.537C261.979 408.853 262.154 409.281 262.154 409.728C262.154 410.175 261.979 410.604 261.668 410.92C261.357 411.235 260.935 411.413 260.495 411.413H250.542C250.102 411.413 249.681 411.235 249.369 410.92C249.058 410.604 248.884 410.175 248.884 409.728C248.884 409.281 249.058 408.853 249.369 408.537C249.681 408.221 250.102 408.044 250.542 408.044ZM255.519 365.926C259.984 365.926 264.16 367.671 267.277 370.842C268.818 372.408 270.038 374.269 270.867 376.316C271.696 378.364 272.117 380.559 272.106 382.773C272.106 387.786 270.352 392.144 267.032 395.363L266.523 395.854L266.521 395.856C264.677 397.629 262.154 400.055 262.154 402.147V404.674C262.154 405.121 261.979 405.549 261.668 405.865C261.357 406.181 260.935 406.359 260.495 406.359H258.007C257.787 406.359 257.576 406.27 257.42 406.112C257.265 405.954 257.177 405.74 257.177 405.516V393.175C257.177 393.004 257.228 392.838 257.323 392.698C257.418 392.557 257.553 392.449 257.709 392.388C258.667 391.992 259.577 391.486 260.421 390.88C260.751 390.611 260.966 390.223 261.023 389.798C261.081 389.372 260.976 388.94 260.73 388.59C260.484 388.24 260.116 387.999 259.701 387.916C259.286 387.833 258.855 387.914 258.497 388.143C257.728 388.692 256.251 389.512 255.519 389.512C254.787 389.512 253.309 388.695 252.542 388.143C252.366 388 252.163 387.896 251.946 387.835C251.729 387.775 251.502 387.76 251.279 387.792C251.056 387.824 250.842 387.901 250.649 388.02C250.457 388.138 250.29 388.295 250.159 388.481C250.028 388.667 249.936 388.878 249.888 389.102C249.84 389.325 249.837 389.556 249.88 389.78C249.923 390.005 250.01 390.218 250.137 390.407C250.263 390.596 250.426 390.757 250.616 390.88C251.46 391.488 252.37 391.995 253.328 392.391C253.485 392.453 253.619 392.56 253.714 392.701C253.809 392.841 253.86 393.008 253.86 393.178V405.516C253.86 405.74 253.773 405.954 253.617 406.112C253.461 406.27 253.25 406.359 253.031 406.359H250.542C250.102 406.359 249.681 406.181 249.369 405.865C249.058 405.549 248.884 405.121 248.884 404.674V402.147C248.884 400.003 246.33 397.574 244.463 395.801L244.011 395.37C240.784 392.273 238.931 387.682 238.931 382.773C238.926 380.559 239.351 378.366 240.183 376.319C241.015 374.273 242.237 372.414 243.778 370.848C245.319 369.283 247.15 368.042 249.165 367.197C251.18 366.352 253.339 365.92 255.519 365.926Z" fill="white"/>
<path d="M251.028 413.591L250.074 412.652L250.074 412.652L251.028 413.591ZM260.009 413.591L260.963 412.652L260.963 412.652L260.009 413.591ZM260.009 415.974L259.055 415.034L259.055 415.034L260.009 415.974ZM251.028 415.974L251.982 415.034L251.982 415.034L251.028 415.974ZM261.668 408.537L260.714 409.476L260.714 409.476L261.668 408.537ZM261.668 410.92L260.714 409.98L260.714 409.98L261.668 410.92ZM249.369 410.92L250.323 409.98L250.323 409.98L249.369 410.92ZM249.369 408.537L250.323 409.476L250.323 409.476L249.369 408.537ZM267.277 370.842L266.323 371.78L266.323 371.781L267.277 370.842ZM255.519 365.926L255.515 367.264H255.519V365.926ZM270.867 376.316L269.626 376.819L269.626 376.819L270.867 376.316ZM272.106 382.773L270.768 382.766V382.773H272.106ZM267.032 395.363L267.962 396.327L267.964 396.324L267.032 395.363ZM266.523 395.854L267.45 396.819L267.452 396.817L266.523 395.854ZM266.521 395.856L265.594 394.89L265.593 394.891L266.521 395.856ZM261.668 405.865L262.622 406.805L262.622 406.805L261.668 405.865ZM257.42 406.112L256.466 407.051L256.466 407.051L257.42 406.112ZM257.177 393.175L258.516 393.175L258.516 393.174L257.177 393.175ZM257.323 392.698L256.214 391.948L256.214 391.948L257.323 392.698ZM257.709 392.388L258.196 393.635L258.208 393.63L258.221 393.625L257.709 392.388ZM260.421 390.88L261.202 391.968L261.237 391.943L261.27 391.916L260.421 390.88ZM260.73 388.59L261.825 387.82L261.825 387.82L260.73 388.59ZM259.701 387.916L259.964 386.604L259.964 386.604L259.701 387.916ZM258.497 388.143L257.777 387.014L257.747 387.033L257.719 387.054L258.497 388.143ZM252.542 388.143L251.7 389.183L251.73 389.207L251.761 389.23L252.542 388.143ZM251.279 387.792L251.091 386.467L251.091 386.467L251.279 387.792ZM250.159 388.481L251.254 389.251L251.254 389.251L250.159 388.481ZM249.888 389.102L251.197 389.383L251.197 389.383L249.888 389.102ZM250.137 390.407L251.249 389.663L251.249 389.663L250.137 390.407ZM250.616 390.88L251.398 389.794L251.371 389.775L251.344 389.757L250.616 390.88ZM253.328 392.391L252.816 393.628L252.828 393.633L252.841 393.638L253.328 392.391ZM253.86 393.178L252.521 393.178V393.178H253.86ZM253.617 406.112L254.571 407.051L254.571 407.051L253.617 406.112ZM249.369 405.865L248.416 406.805L248.416 406.805L249.369 405.865ZM244.463 395.801L243.54 396.77L243.541 396.772L244.463 395.801ZM244.011 395.37L243.084 396.336L243.088 396.339L244.011 395.37ZM238.931 382.773H240.27L240.27 382.77L238.931 382.773ZM243.778 370.848L244.732 371.787L244.732 371.787L243.778 370.848ZM221.319 391.543C221.319 372.39 236.846 356.864 255.999 356.864V354.186C235.368 354.186 218.642 370.911 218.642 391.543H221.319ZM255.999 426.223C236.846 426.223 221.319 410.696 221.319 391.543H218.642C218.642 412.175 235.368 428.9 255.999 428.9V426.223ZM290.68 391.543C290.68 410.696 275.152 426.223 255.999 426.223V428.9C276.631 428.9 293.357 412.175 293.357 391.543H290.68ZM255.999 356.864C275.152 356.864 290.68 372.39 290.68 391.543H293.357C293.357 370.911 276.631 354.186 255.999 354.186V356.864ZM252.201 411.759C251.399 411.759 250.635 412.083 250.074 412.652L251.982 414.53C252.044 414.468 252.123 414.436 252.201 414.436V411.759ZM258.836 411.759H252.201V414.436H258.836V411.759ZM260.963 412.652C260.402 412.083 259.638 411.759 258.836 411.759V414.436C258.914 414.436 258.993 414.468 259.055 414.53L260.963 412.652ZM261.834 414.782C261.834 413.987 261.523 413.22 260.963 412.652L259.055 414.53C259.118 414.594 259.156 414.684 259.156 414.782H261.834ZM260.963 416.913C261.523 416.344 261.834 415.578 261.834 414.782H259.156C259.156 414.881 259.118 414.971 259.055 415.034L260.963 416.913ZM258.836 417.806C259.638 417.806 260.402 417.482 260.963 416.913L259.055 415.034C258.993 415.097 258.914 415.128 258.836 415.128V417.806ZM252.201 417.806H258.836V415.128H252.201V417.806ZM250.074 416.913C250.635 417.482 251.399 417.806 252.201 417.806V415.128C252.123 415.128 252.044 415.097 251.982 415.034L250.074 416.913ZM249.204 414.782C249.204 415.578 249.515 416.344 250.074 416.913L251.982 415.034C251.92 414.971 251.881 414.881 251.881 414.782H249.204ZM250.074 412.652C249.515 413.22 249.204 413.987 249.204 414.782H251.881C251.881 414.684 251.92 414.594 251.982 414.53L250.074 412.652ZM260.495 406.705H250.542V409.382H260.495V406.705ZM262.622 407.598C262.061 407.029 261.297 406.705 260.495 406.705V409.382C260.573 409.382 260.652 409.414 260.714 409.476L262.622 407.598ZM263.492 409.728C263.492 408.933 263.181 408.166 262.622 407.598L260.714 409.476C260.776 409.54 260.815 409.63 260.815 409.728H263.492ZM262.622 411.859C263.181 411.29 263.492 410.523 263.492 409.728H260.815C260.815 409.827 260.776 409.917 260.714 409.98L262.622 411.859ZM260.495 412.752C261.297 412.752 262.061 412.428 262.622 411.859L260.714 409.98C260.652 410.043 260.573 410.074 260.495 410.074V412.752ZM250.542 412.752H260.495V410.074H250.542V412.752ZM248.416 411.859C248.976 412.428 249.741 412.752 250.542 412.752V410.074C250.464 410.074 250.385 410.043 250.323 409.98L248.416 411.859ZM247.545 409.728C247.545 410.523 247.856 411.29 248.416 411.859L250.323 409.98C250.261 409.917 250.222 409.827 250.222 409.728H247.545ZM248.416 407.598C247.856 408.166 247.545 408.933 247.545 409.728H250.222C250.222 409.63 250.261 409.54 250.323 409.476L248.416 407.598ZM250.542 406.705C249.741 406.705 248.976 407.029 248.416 407.598L250.323 409.476C250.385 409.414 250.464 409.382 250.542 409.382V406.705ZM268.232 369.903C264.861 366.476 260.341 364.587 255.519 364.587V367.264C259.627 367.264 263.458 368.867 266.323 371.78L268.232 369.903ZM272.108 375.814C271.214 373.604 269.896 371.595 268.231 369.903L266.323 371.781C267.74 373.221 268.863 374.933 269.626 376.819L272.108 375.814ZM273.445 382.779C273.457 380.391 273.003 378.024 272.108 375.814L269.626 376.819C270.39 378.704 270.778 380.726 270.768 382.766L273.445 382.779ZM267.964 396.324C271.568 392.83 273.445 388.114 273.445 382.773H270.768C270.768 387.458 269.136 391.458 266.101 394.402L267.964 396.324ZM267.452 396.817L267.962 396.327L266.103 394.399L265.594 394.89L267.452 396.817ZM267.448 396.822L267.45 396.819L265.597 394.888L265.594 394.89L267.448 396.822ZM263.492 402.147C263.492 401.584 263.864 400.764 264.696 399.712C265.491 398.706 266.514 397.72 267.449 396.821L265.593 394.891C264.684 395.765 263.523 396.878 262.596 398.052C261.705 399.178 260.815 400.618 260.815 402.147H263.492ZM263.492 404.674V402.147H260.815V404.674H263.492ZM262.622 406.805C263.181 406.236 263.492 405.469 263.492 404.674H260.815C260.815 404.773 260.776 404.863 260.714 404.926L262.622 406.805ZM260.495 407.697C261.297 407.697 262.061 407.374 262.622 406.805L260.714 404.926C260.652 404.989 260.573 405.02 260.495 405.02V407.697ZM258.007 407.697H260.495V405.02H258.007V407.697ZM256.466 407.051C256.871 407.463 257.425 407.697 258.007 407.697V405.02C258.149 405.02 258.28 405.078 258.374 405.173L256.466 407.051ZM255.839 405.516C255.839 406.088 256.062 406.641 256.466 407.051L258.374 405.173C258.467 405.267 258.516 405.391 258.516 405.516H255.839ZM255.839 393.175V405.516H258.516V393.175H255.839ZM256.214 391.948C255.969 392.311 255.839 392.739 255.839 393.175L258.516 393.174C258.516 393.27 258.488 393.365 258.432 393.447L256.214 391.948ZM257.222 391.141C256.811 391.302 256.46 391.584 256.214 391.948L258.432 393.447C258.376 393.53 258.295 393.597 258.196 393.635L257.222 391.141ZM259.641 389.793C258.88 390.339 258.06 390.795 257.198 391.151L258.221 393.625C259.274 393.19 260.274 392.634 261.202 391.968L259.641 389.793ZM259.697 389.619C259.684 389.712 259.638 389.792 259.573 389.845L261.27 391.916C261.864 391.429 262.248 390.735 262.35 389.976L259.697 389.619ZM259.635 389.36C259.686 389.432 259.709 389.525 259.697 389.619L262.35 389.976C262.452 389.218 262.266 388.447 261.825 387.82L259.635 389.36ZM259.438 389.229C259.513 389.244 259.584 389.288 259.635 389.36L261.825 387.82C261.384 387.193 260.72 386.755 259.964 386.604L259.438 389.229ZM259.218 389.271C259.285 389.228 259.364 389.214 259.438 389.229L259.964 386.604C259.208 386.452 258.425 386.6 257.777 387.014L259.218 389.271ZM255.519 390.85C255.916 390.85 256.307 390.746 256.612 390.644C256.938 390.534 257.271 390.388 257.584 390.235C258.206 389.929 258.831 389.55 259.275 389.232L257.719 387.054C257.394 387.286 256.895 387.59 256.404 387.832C256.159 387.952 255.938 388.045 255.757 388.106C255.556 388.174 255.487 388.173 255.519 388.173V390.85ZM251.761 389.23C252.206 389.55 252.832 389.93 253.454 390.236C253.766 390.389 254.1 390.535 254.426 390.644C254.731 390.747 255.122 390.85 255.519 390.85V388.173C255.55 388.173 255.481 388.174 255.279 388.106C255.098 388.046 254.878 387.952 254.633 387.832C254.142 387.591 253.646 387.287 253.324 387.056L251.761 389.23ZM251.588 389.125C251.628 389.136 251.666 389.156 251.7 389.183L253.384 387.102C253.066 386.845 252.699 386.655 252.304 386.546L251.588 389.125ZM251.467 389.117C251.507 389.112 251.548 389.114 251.588 389.125L252.304 386.546C251.91 386.436 251.497 386.409 251.091 386.467L251.467 389.117ZM251.351 389.16C251.387 389.137 251.427 389.123 251.467 389.117L251.091 386.467C250.685 386.524 250.296 386.665 249.948 386.879L251.351 389.16ZM251.254 389.251C251.281 389.213 251.314 389.182 251.351 389.16L249.948 386.879C249.6 387.094 249.299 387.377 249.064 387.711L251.254 389.251ZM251.197 389.383C251.207 389.334 251.227 389.29 251.254 389.251L249.064 387.711C248.829 388.044 248.665 388.422 248.579 388.82L251.197 389.383ZM251.195 389.53C251.186 389.481 251.187 389.431 251.197 389.383L248.579 388.82C248.494 389.219 248.489 389.631 248.565 390.031L251.195 389.53ZM251.249 389.663C251.223 389.624 251.204 389.579 251.195 389.53L248.565 390.031C248.641 390.431 248.797 390.812 249.024 391.152L251.249 389.663ZM251.344 389.757C251.308 389.734 251.275 389.702 251.249 389.663L249.024 391.152C249.251 391.491 249.544 391.781 249.888 392.004L251.344 389.757ZM253.84 391.155C252.978 390.797 252.158 390.341 251.398 389.794L249.834 391.967C250.762 392.634 251.762 393.192 252.816 393.628L253.84 391.155ZM254.823 391.951C254.577 391.588 254.227 391.305 253.815 391.144L252.841 393.638C252.742 393.6 252.661 393.533 252.605 393.451L254.823 391.951ZM255.199 393.178C255.199 392.742 255.069 392.314 254.823 391.951L252.605 393.451C252.55 393.368 252.521 393.273 252.521 393.178L255.199 393.178ZM255.199 405.516V393.178H252.521V405.516H255.199ZM254.571 407.051C254.975 406.641 255.199 406.088 255.199 405.516H252.521C252.521 405.391 252.57 405.267 252.663 405.173L254.571 407.051ZM253.031 407.697C253.612 407.697 254.166 407.463 254.571 407.051L252.663 405.173C252.757 405.078 252.889 405.02 253.031 405.02V407.697ZM250.542 407.697H253.031V405.02H250.542V407.697ZM248.416 406.805C248.976 407.374 249.741 407.697 250.542 407.697V405.02C250.464 405.02 250.385 404.989 250.323 404.926L248.416 406.805ZM247.545 404.674C247.545 405.469 247.856 406.236 248.416 406.805L250.323 404.926C250.261 404.863 250.222 404.773 250.222 404.674H247.545ZM247.545 402.147V404.674H250.222V402.147H247.545ZM243.541 396.772C244.487 397.67 245.522 398.657 246.325 399.668C247.164 400.723 247.545 401.557 247.545 402.147H250.222C250.222 400.593 249.326 399.141 248.422 398.002C247.481 396.819 246.306 395.705 245.385 394.83L243.541 396.772ZM243.088 396.339L243.54 396.77L245.386 394.832L244.934 394.401L243.088 396.339ZM237.592 382.773C237.592 388.007 239.567 392.961 243.084 396.336L244.938 394.404C242.001 391.586 240.27 387.356 240.27 382.773H237.592ZM238.943 375.815C238.046 378.023 237.587 380.389 237.592 382.776L240.27 382.77C240.265 380.729 240.657 378.708 241.423 376.823L238.943 375.815ZM242.824 369.909C241.159 371.6 239.84 373.607 238.943 375.815L241.423 376.823C242.189 374.938 243.314 373.227 244.732 371.787L242.824 369.909ZM248.647 365.963C246.468 366.876 244.489 368.218 242.824 369.909L244.732 371.787C246.149 370.348 247.832 369.208 249.682 368.432L248.647 365.963ZM255.522 364.587C253.163 364.581 250.826 365.049 248.647 365.963L249.682 368.432C251.533 367.656 253.515 367.259 255.515 367.264L255.522 364.587Z" fill="white" mask="url(#path-9-inside-3_853_222)"/>
<mask id="path-11-inside-4_853_222" fill="white">
<path fill-rule="evenodd" clip-rule="evenodd" d="M255.985 314.761C308.335 314.761 350.772 272.325 350.772 219.976C350.772 167.628 308.335 125.191 255.985 125.191C203.636 125.191 161.198 167.628 161.198 219.976C161.198 272.325 203.636 314.761 255.985 314.761ZM234.552 277.045C225.629 282.384 214.292 275.956 214.292 265.558V174.392C214.292 163.994 225.629 157.566 234.552 162.904L310.733 208.488C319.418 213.684 319.418 226.266 310.733 231.462L234.552 277.045Z"/>
</mask>
<path fill-rule="evenodd" clip-rule="evenodd" d="M255.985 314.761C308.335 314.761 350.772 272.325 350.772 219.976C350.772 167.628 308.335 125.191 255.985 125.191C203.636 125.191 161.198 167.628 161.198 219.976C161.198 272.325 203.636 314.761 255.985 314.761ZM234.552 277.045C225.629 282.384 214.292 275.956 214.292 265.558V174.392C214.292 163.994 225.629 157.566 234.552 162.904L310.733 208.488C319.418 213.684 319.418 226.266 310.733 231.462L234.552 277.045Z" fill="white"/>
<path d="M234.552 277.045L235.239 278.194L235.239 278.194L234.552 277.045ZM234.552 162.904L235.239 161.756L235.239 161.756L234.552 162.904ZM310.733 208.488L311.421 207.339L311.421 207.339L310.733 208.488ZM310.733 231.462L310.046 230.313L310.046 230.313L310.733 231.462ZM349.433 219.976C349.433 271.585 307.595 313.423 255.985 313.423V316.1C309.074 316.1 352.111 273.064 352.111 219.976H349.433ZM255.985 126.53C307.595 126.53 349.433 168.367 349.433 219.976H352.111C352.111 166.889 309.074 123.853 255.985 123.853V126.53ZM162.537 219.976C162.537 168.367 204.375 126.53 255.985 126.53V123.853C202.897 123.853 159.86 166.889 159.86 219.976H162.537ZM255.985 313.423C204.375 313.423 162.537 271.585 162.537 219.976H159.86C159.86 273.064 202.897 316.1 255.985 316.1V313.423ZM212.953 265.558C212.953 276.996 225.424 284.067 235.239 278.194L233.865 275.897C225.834 280.702 215.631 274.916 215.631 265.558H212.953ZM212.953 174.392V265.558H215.631V174.392H212.953ZM235.239 161.756C225.424 155.883 212.953 162.954 212.953 174.392H215.631C215.631 165.033 225.834 159.248 233.865 164.053L235.239 161.756ZM311.421 207.339L235.239 161.756L233.865 164.053L310.046 209.636L311.421 207.339ZM311.421 232.611C320.974 226.895 320.974 213.055 311.421 207.339L310.046 209.636C317.862 214.313 317.862 225.637 310.046 230.313L311.421 232.611ZM235.239 278.194L311.421 232.611L310.046 230.313L233.865 275.897L235.239 278.194Z" fill="white" mask="url(#path-11-inside-4_853_222)"/>
</svg>
