<svg width="512" height="512" viewBox="0 0 512 512" fill="none" xmlns="http://www.w3.org/2000/svg">
<path d="M408 64H104C89.1609 64.0422 74.9416 69.9558 64.4487 80.4487C53.9558 90.9416 48.0422 105.161 48 120V312C48.0422 326.839 53.9558 341.058 64.4487 351.551C74.9416 362.044 89.1609 367.958 104 368H144V448L237.72 369.86C239.159 368.658 240.975 368 242.85 368H408C422.839 367.958 437.058 362.044 447.551 351.551C458.044 341.058 463.958 326.839 464 312V120C463.958 105.161 458.044 90.9416 447.551 80.4487C437.058 69.9558 422.839 64.0422 408 64V64Z" stroke="#FFFFFF" stroke-width="20" stroke-linejoin="round"/>
<path d="M160 248C177.673 248 192 233.673 192 216C192 198.327 177.673 184 160 184C142.327 184 128 198.327 128 216C128 233.673 142.327 248 160 248Z" fill="#FFFFFF"/>
<path d="M256 248C273.673 248 288 233.673 288 216C288 198.327 273.673 184 256 184C238.327 184 224 198.327 224 216C224 233.673 238.327 248 256 248Z" fill="#FFFFFF"/>
<path d="M352 248C369.673 248 384 233.673 384 216C384 198.327 369.673 184 352 184C334.327 184 320 198.327 320 216C320 233.673 334.327 248 352 248Z" fill="#FFFFFF"/>
</svg>
