<svg width="512" height="512" viewBox="0 0 512 512" fill="none" xmlns="http://www.w3.org/2000/svg">
<path d="M163.84 30.72C90.4446 30.72 30.72 90.4446 30.72 163.84V348.16C30.72 421.555 90.4446 481.28 163.84 481.28H348.16C421.555 481.28 481.28 421.555 481.28 348.16V163.84C481.28 90.4446 421.555 30.72 348.16 30.72H163.84ZM163.84 51.2H348.16C410.486 51.2 460.8 101.514 460.8 163.84V348.16C460.8 410.486 410.486 460.8 348.16 460.8H163.84C101.514 460.8 51.2 410.486 51.2 348.16V163.84C51.2 101.514 101.514 51.2 163.84 51.2ZM378.88 112.64C373.448 112.64 368.239 114.798 364.398 118.638C360.558 122.479 358.4 127.688 358.4 133.12C358.4 138.552 360.558 143.761 364.398 147.602C368.239 151.442 373.448 153.6 378.88 153.6C384.312 153.6 389.521 151.442 393.362 147.602C397.202 143.761 399.36 138.552 399.36 133.12C399.36 127.688 397.202 122.479 393.362 118.638C389.521 114.798 384.312 112.64 378.88 112.64ZM256 143.36C193.912 143.36 143.36 193.912 143.36 256C143.36 318.088 193.912 368.64 256 368.64C318.088 368.64 368.64 318.088 368.64 256C368.64 193.912 318.088 143.36 256 143.36ZM256 163.84C307.02 163.84 348.16 204.98 348.16 256C348.16 307.02 307.02 348.16 256 348.16C204.98 348.16 163.84 307.02 163.84 256C163.84 204.98 204.98 163.84 256 163.84Z" fill="#FFFFFF"/>
</svg>
